<svg width="64" height="64" viewBox="0 0 64 64" fill="none" xmlns="http://www.w3.org/2000/svg">
  <!-- Background with rounded corners -->
  <rect width="64" height="64" rx="12" fill="#000000"/>
  
  <!-- Letter S -->
  <path d="M32 18C25.5 18 20 21.5 20 26.5C20 29.8 22.5 32.5 26.5 33.5C30.5 34.5 32 35.5 32 37.5C32 39.5 30 41 27 41C24 41 22 39.5 21 37.5L16 40C17.5 43.5 21.5 46 27 46C33.5 46 39 42.5 39 37.5C39 34.2 36.5 31.5 32.5 30.5C28.5 29.5 27 28.5 27 26.5C27 24.5 29 23 32 23C35 23 37 24.5 38 26.5L43 24C41.5 20.5 37.5 18 32 18Z" fill="white"/>
  
  <!-- Green status dot -->
  <circle cx="54" cy="10" r="5" fill="#10B981"/>
</svg>
